<svg version="1.1" id="Layer_1" xmlns="http://www.w3.org/2000/svg" xmlns:xlink="http://www.w3.org/1999/xlink" x="0px" y="0px"
	 width="100%" viewBox="0 0 940 788" enable-background="new 0 0 940 788" xml:space="preserve">
<path fill="#000000" opacity="1.000000" stroke="none" 
	d="
M539.000000,789.000000 
	C359.333374,789.000000 180.166779,789.000000 1.000120,789.000000 
	C1.000080,526.333435 1.000080,263.666931 1.000040,1.000296 
	C314.333099,1.000198 627.666199,1.000198 940.999512,1.000099 
	C940.999634,263.666351 940.999634,526.332703 940.999817,788.999512 
	C807.166687,789.000000 673.333313,789.000000 539.000000,789.000000 
M716.430298,705.853210 
	C716.608521,705.573486 716.786743,705.293823 716.986023,704.151489 
	C715.776794,699.736145 715.455444,694.788757 713.189392,691.006592 
	C706.781860,680.312073 701.719238,669.168396 697.629944,657.384521 
	C695.825317,652.184143 692.172363,646.878052 687.871826,643.529236 
	C684.477356,640.886047 681.018982,638.665344 678.590759,634.996765 
	C675.401428,630.178284 671.675842,625.688538 668.775513,620.710938 
	C663.474609,611.613281 658.071533,602.505127 653.740906,592.935303 
	C650.507263,585.789429 649.097229,577.840027 646.516113,570.372620 
	C641.120789,554.763794 635.426392,539.258667 629.975281,523.668823 
	C626.434937,513.543762 623.176086,503.320251 619.657715,493.187225 
	C617.608398,487.285187 615.057190,481.550507 613.164673,475.602753 
	C611.014343,468.844788 609.279602,461.950775 607.482300,455.084961 
	C602.289673,435.248352 596.902161,415.457428 592.102783,395.525360 
	C589.551331,384.929321 588.019287,374.085327 586.102051,363.339905 
	C584.679321,355.366211 583.021362,347.411926 582.095459,339.376740 
	C580.143799,322.440887 578.600281,305.457977 576.896057,288.493683 
	C574.928955,268.911865 571.947144,249.362991 571.301208,229.737457 
	C570.687866,211.101654 568.307312,192.764572 565.932373,174.373520 
	C564.854980,166.031082 564.025574,157.553909 561.814636,149.485611 
	C558.809265,138.518509 554.973389,127.732635 550.798462,117.143166 
	C544.441406,101.018669 535.557251,86.314644 523.272522,73.952057 
	C511.785217,62.391880 499.015656,52.456188 484.124146,45.551895 
	C469.249146,38.655270 454.290497,31.968449 437.399536,31.979515 
	C431.160065,31.983603 424.920593,32.002220 418.681122,32.002434 
	C400.793182,32.003040 383.931671,36.956841 367.753052,43.821198 
	C348.548645,51.969341 331.569885,63.727173 318.722595,80.425499 
	C311.377747,89.971954 304.304321,99.926247 298.673584,110.528046 
	C294.342438,118.682861 291.872681,127.990341 289.620667,137.045258 
	C286.558563,149.357193 284.152008,161.862000 282.133545,174.391891 
	C281.006348,181.388992 281.360046,188.613861 280.820831,195.718979 
	C279.994781,206.603836 278.679779,217.459030 278.127441,228.354935 
	C277.672516,237.328918 278.032623,246.343781 278.014526,255.340500 
	C278.001190,261.969666 277.988892,261.958344 271.572876,262.005280 
	C258.444122,262.101318 246.116684,265.503479 234.676407,271.745209 
	C212.929413,283.610138 198.076492,301.246216 190.380951,324.986603 
	C186.096252,338.204651 184.366806,351.618500 187.086929,365.148010 
	C188.405899,371.708374 188.039505,380.418610 197.853226,382.070435 
	C198.374847,382.158234 198.759750,382.984650 199.233597,383.440979 
	C209.764328,393.582764 220.562347,403.464142 230.754242,413.935516 
	C239.997665,423.432404 248.829041,433.362762 257.370270,443.499542 
	C263.183685,450.398834 268.156097,458.004120 273.559052,465.253082 
	C276.493225,469.189819 277.908844,473.305664 278.244232,478.447540 
	C278.875793,488.130402 280.770660,497.738892 282.298248,507.353210 
	C284.112823,518.773804 285.954987,530.193359 288.039673,541.566772 
	C290.385162,554.363098 289.321289,567.807617 295.058502,579.948914 
	C298.196838,586.590393 300.001831,594.528931 307.731750,597.597107 
	C314.259766,600.188110 319.699921,603.535217 323.420624,609.735596 
	C328.473724,618.156372 335.192902,625.597656 337.166962,635.737854 
	C337.653412,638.236633 339.542267,641.693848 341.607666,642.441406 
	C350.730011,645.743042 359.991791,649.370178 369.506989,650.692566 
	C380.958344,652.283997 392.717560,651.658691 404.343292,651.999817 
	C405.507050,652.033997 406.695984,651.977173 407.828430,652.195312 
	C420.806488,654.694153 433.756042,657.346375 446.755371,659.727417 
	C453.908417,661.037659 461.120941,662.081421 468.342285,662.948486 
	C483.708649,664.793518 498.455109,668.408813 512.306519,675.698181 
	C523.050171,681.352112 534.261169,686.086487 546.924255,685.003052 
	C551.043335,684.650635 555.163635,684.285339 559.290649,684.057739 
	C566.745911,683.646545 574.349854,684.129272 581.635437,682.816528 
	C597.093140,680.031433 612.046265,684.026611 627.110657,685.511475 
	C640.864319,686.867188 654.344116,690.800415 668.049133,692.922546 
	C677.111450,694.325745 685.987549,695.313965 693.383301,701.643005 
	C696.567627,704.367920 700.723145,705.926453 704.280884,708.254211 
	C708.981506,711.329590 712.716309,710.240173 716.430298,705.853210 
z"/>
<path fill="#2C2C2C" opacity="1.000000" stroke="none" 
	d="
M715.966614,706.067932 
	C712.716309,710.240173 708.981506,711.329590 704.280884,708.254211 
	C700.723145,705.926453 696.567627,704.367920 693.383301,701.643005 
	C685.987549,695.313965 677.111450,694.325745 668.049133,692.922546 
	C654.344116,690.800415 640.864319,686.867188 627.110657,685.511475 
	C612.046265,684.026611 597.093140,680.031433 581.635437,682.816528 
	C574.349854,684.129272 566.745911,683.646545 559.290649,684.057739 
	C555.163635,684.285339 551.043335,684.650635 546.924255,685.003052 
	C534.261169,686.086487 523.050171,681.352112 512.306519,675.698181 
	C498.455109,668.408813 483.708649,664.793518 468.342285,662.948486 
	C461.120941,662.081421 453.908417,661.037659 446.755371,659.727417 
	C433.756042,657.346375 420.806488,654.694153 407.828430,652.195312 
	C406.695984,651.977173 405.507050,652.033997 404.343292,651.999817 
	C392.717560,651.658691 380.958344,652.283997 369.506989,650.692566 
	C359.991791,649.370178 350.730011,645.743042 341.607666,642.441406 
	C339.542267,641.693848 337.653412,638.236633 337.166962,635.737854 
	C335.192902,625.597656 328.473724,618.156372 323.420624,609.735596 
	C319.699921,603.535217 314.259766,600.188110 307.731750,597.597107 
	C300.001831,594.528931 298.196838,586.590393 295.058502,579.948914 
	C289.321289,567.807617 290.385162,554.363098 288.039673,541.566772 
	C285.954987,530.193359 284.112823,518.773804 282.298248,507.353210 
	C280.770660,497.738892 278.875793,488.130402 278.244232,478.447540 
	C277.908844,473.305664 276.493225,469.189819 273.559052,465.253082 
	C268.156097,458.004120 263.183685,450.398834 257.370270,443.499542 
	C248.829041,433.362762 239.997665,423.432404 230.754242,413.935516 
	C220.562347,403.464142 209.764328,393.582764 199.233597,383.440979 
	C198.759750,382.984650 198.374847,382.158234 197.853226,382.070435 
	C188.039505,380.418610 188.405899,371.708374 187.086929,365.148010 
	C184.366806,351.618500 186.096252,338.204651 190.380951,324.986603 
	C198.076492,301.246216 212.929413,283.610138 234.676407,271.745209 
	C246.116684,265.503479 258.444122,262.101318 271.572876,262.005280 
	C277.988892,261.958344 278.001190,261.969666 278.014526,255.340500 
	C278.032623,246.343781 277.672516,237.328918 278.127441,228.354935 
	C278.679779,217.459030 279.994781,206.603836 280.820831,195.718979 
	C281.360046,188.613861 281.006348,181.388992 282.133545,174.391891 
	C284.152008,161.862000 286.558563,149.357193 289.620667,137.045258 
	C291.872681,127.990341 294.342438,118.682861 298.673584,110.528046 
	C304.304321,99.926247 311.377747,89.971954 318.722595,80.425499 
	C331.569885,63.727173 348.548645,51.969341 367.753052,43.821198 
	C383.931671,36.956841 400.793182,32.003040 418.681122,32.002434 
	C424.920593,32.002220 431.160065,31.983603 437.399536,31.979515 
	C454.290497,31.968449 469.249146,38.655270 484.124146,45.551895 
	C499.015656,52.456188 511.785217,62.391880 523.272522,73.952057 
	C535.557251,86.314644 544.441406,101.018669 550.798462,117.143166 
	C554.973389,127.732635 558.809265,138.518509 561.814636,149.485611 
	C564.025574,157.553909 564.854980,166.031082 565.932373,174.373520 
	C568.307312,192.764572 570.687866,211.101654 571.301208,229.737457 
	C571.947144,249.362991 574.928955,268.911865 576.896057,288.493683 
	C578.600281,305.457977 580.143799,322.440887 582.095459,339.376740 
	C583.021362,347.411926 584.679321,355.366211 586.102051,363.339905 
	C588.019287,374.085327 589.551331,384.929321 592.102783,395.525360 
	C596.902161,415.457428 602.289673,435.248352 607.482300,455.084961 
	C609.279602,461.950775 611.014343,468.844788 613.164673,475.602753 
	C615.057190,481.550507 617.608398,487.285187 619.657715,493.187225 
	C623.176086,503.320251 626.434937,513.543762 629.975281,523.668823 
	C635.426392,539.258667 641.120789,554.763794 646.516113,570.372620 
	C649.097229,577.840027 650.507263,585.789429 653.740906,592.935303 
	C658.071533,602.505127 663.474609,611.613281 668.775513,620.710938 
	C671.675842,625.688538 675.401428,630.178284 678.590759,634.996765 
	C681.018982,638.665344 684.477356,640.886047 687.871826,643.529236 
	C692.172363,646.878052 695.825317,652.184143 697.629944,657.384521 
	C701.719238,669.168396 706.781860,680.312073 713.189392,691.006592 
	C715.455444,694.788757 715.776794,699.736145 716.772339,704.719727 
	C716.307678,705.507202 716.110352,705.767212 715.966614,706.067932 
M275.095215,444.552094 
	C275.311859,444.210358 275.528503,443.868652 275.722321,442.895172 
	C275.452271,442.585083 275.182220,442.274963 274.831451,441.205414 
	C270.556244,429.197479 266.373016,417.155762 261.983459,405.189789 
	C255.966934,388.788666 245.807617,376.434082 228.214981,371.690948 
	C221.058594,369.761536 213.914017,369.060089 206.400543,373.100922 
	C212.571701,378.745422 218.453217,383.841095 224.011368,389.267944 
	C235.597000,400.579742 247.189651,411.895233 258.421021,423.554443 
	C263.987823,429.333313 268.760895,435.876862 273.901855,442.699371 
	C274.241638,443.162109 274.581421,443.624847 275.095215,444.552094 
M691.253174,677.721008 
	C690.861023,677.147400 690.468872,676.573792 689.652466,675.386292 
	C688.730957,672.605530 687.809387,669.824829 687.291016,666.693665 
	C686.885986,666.129150 686.480957,665.564697 685.758057,664.551086 
	C685.484558,664.090332 685.211060,663.629517 684.854614,662.536621 
	C683.905457,662.340149 682.956238,662.143616 681.391541,662.107605 
	C680.927979,661.767578 680.464478,661.427490 679.966003,660.351624 
	C679.209106,659.604797 678.452148,658.857910 677.099365,657.797485 
	C673.323425,652.025635 669.886719,645.994385 665.708435,640.530151 
	C652.710815,623.532715 642.591187,605.205688 635.981567,584.693848 
	C625.411133,551.889893 613.936951,519.376343 602.775269,486.763794 
	C591.741455,454.524567 582.639648,421.840271 576.529907,388.227661 
	C570.851257,356.986694 566.840027,325.598389 563.793396,294.036133 
	C563.326294,289.197540 562.096313,284.419525 561.018005,279.659058 
	C560.536987,277.535583 558.999451,275.551910 558.898865,273.458771 
	C558.420349,263.502899 558.632141,253.505630 557.929504,243.570389 
	C556.505188,223.430267 554.584106,203.325851 552.989319,183.197067 
	C551.377136,162.847855 546.395142,143.335846 538.885193,124.406830 
	C532.967896,109.492233 525.318665,95.426231 514.055664,84.071342 
	C506.185455,76.136902 496.940430,69.264565 487.432892,63.319839 
	C468.822021,51.683105 448.548492,44.184746 426.185547,45.198704 
	C416.017914,45.659718 405.809387,47.232452 395.823975,49.292389 
	C372.743866,54.053658 352.483490,64.521866 335.720459,81.271660 
	C309.937836,107.033974 299.015625,139.349960 295.188019,174.624771 
	C293.805878,187.362396 292.958801,200.169907 292.259277,212.966949 
	C291.244568,231.529388 290.510651,250.108429 289.814148,268.686310 
	C289.562775,275.390656 287.538055,277.026489 280.939789,276.509216 
	C274.664124,276.017181 268.088379,275.253296 262.053406,276.534607 
	C241.189285,280.964264 224.134048,291.594696 212.120895,309.689484 
	C201.404221,325.831421 196.345245,343.332733 198.460800,363.166077 
	C203.298294,362.063263 207.825745,360.514435 212.460297,360.061371 
	C236.332153,357.727753 258.214172,368.663727 267.892670,391.102875 
	C277.034241,412.297241 283.976379,434.441040 291.830322,456.187317 
	C292.138153,457.039734 291.943542,458.107086 291.857330,459.062927 
	C291.316101,465.062958 289.697876,471.183044 290.390167,477.032074 
	C291.844910,489.322571 294.651520,501.446777 296.632568,513.683044 
	C298.614319,525.923523 300.409546,538.198730 302.018494,550.493774 
	C303.372559,560.841064 304.602722,571.239197 309.716797,580.514709 
	C311.157288,583.127441 314.125977,585.026855 316.671356,586.869934 
	C320.230133,589.446838 324.942383,590.933472 327.591064,594.171021 
	C335.837189,604.250671 344.567078,614.155762 348.198395,627.217529 
	C348.763031,629.248596 350.245605,632.119934 351.870331,632.573669 
	C359.467834,634.695435 367.263855,636.106262 375.503632,638.256348 
	C377.334930,638.238525 379.166229,638.220764 381.929565,638.206970 
	C387.952118,638.413391 393.974701,638.619751 400.315338,639.646606 
	C404.239380,639.734619 408.163452,639.822632 412.946320,639.904968 
	C416.522308,640.269653 420.145782,640.381714 423.666107,641.042786 
	C438.843964,643.893372 453.904236,647.514954 469.172546,649.702637 
	C488.084229,652.412231 506.155060,657.179749 523.041870,666.286377 
	C530.175537,670.133423 537.808655,672.584412 546.135193,671.851074 
	C550.060364,671.505249 553.992615,671.240356 558.788940,671.176880 
	C561.533997,670.691467 564.279114,670.206116 567.866760,669.596680 
	C572.585510,669.463989 577.304321,669.331299 582.689331,669.674133 
	C589.804443,669.773804 596.919556,669.873474 604.928162,669.937073 
	C612.199219,670.834351 619.500244,671.539490 626.734985,672.669189 
	C641.513000,674.976807 656.269226,677.432556 671.006470,679.988342 
	C678.448669,681.278992 686.198608,681.526489 693.270203,686.222656 
	C693.953247,686.232971 694.636353,686.243347 695.319397,686.253662 
	C694.795593,685.803406 694.271790,685.353088 693.489502,684.280701 
	C692.605286,682.208801 691.721008,680.136841 691.253174,677.721008 
z"/>
<path fill="#2C2C2C" opacity="1.000000" stroke="none" 
	d="
M716.198486,705.960571 
	C716.110352,705.767212 716.307678,705.507202 716.761841,705.151123 
	C716.786743,705.293823 716.608521,705.573486 716.198486,705.960571 
z"/>
<path fill="#FEFEFE" opacity="1.000000" stroke="none" 
	d="
M557.921692,670.938782 
	C553.992615,671.240356 550.060364,671.505249 546.135193,671.851074 
	C537.808655,672.584412 530.175537,670.133423 523.041870,666.286377 
	C506.155060,657.179749 488.084229,652.412231 469.172546,649.702637 
	C453.904236,647.514954 438.843964,643.893372 423.666107,641.042786 
	C420.145782,640.381714 416.522308,640.269653 412.241821,639.671143 
	C407.690643,639.233643 403.843933,639.029968 399.997253,638.826172 
	C393.974701,638.619751 387.952118,638.413391 381.182739,637.996338 
	C378.620209,637.780884 376.804565,637.776062 374.988892,637.771240 
	C367.263855,636.106262 359.467834,634.695435 351.870331,632.573669 
	C350.245605,632.119934 348.763031,629.248596 348.198395,627.217529 
	C344.567078,614.155762 335.837189,604.250671 327.591064,594.171021 
	C324.942383,590.933472 320.230133,589.446838 316.671356,586.869934 
	C314.125977,585.026855 311.157288,583.127441 309.716797,580.514709 
	C304.602722,571.239197 303.372559,560.841064 302.018494,550.493774 
	C300.409546,538.198730 298.614319,525.923523 296.632568,513.683044 
	C294.651520,501.446777 291.844910,489.322571 290.390167,477.032074 
	C289.697876,471.183044 291.316101,465.062958 291.857330,459.062927 
	C291.943542,458.107086 292.138153,457.039734 291.830322,456.187317 
	C283.976379,434.441040 277.034241,412.297241 267.892670,391.102875 
	C258.214172,368.663727 236.332153,357.727753 212.460297,360.061371 
	C207.825745,360.514435 203.298294,362.063263 198.460800,363.166077 
	C196.345245,343.332733 201.404221,325.831421 212.120895,309.689484 
	C224.134048,291.594696 241.189285,280.964264 262.053406,276.534607 
	C268.088379,275.253296 274.664124,276.017181 280.939789,276.509216 
	C287.538055,277.026489 289.562775,275.390656 289.814148,268.686310 
	C290.510651,250.108429 291.244568,231.529388 292.259277,212.966949 
	C292.958801,200.169907 293.805878,187.362396 295.188019,174.624771 
	C299.015625,139.349960 309.937836,107.033974 335.720459,81.271660 
	C352.483490,64.521866 372.743866,54.053658 395.823975,49.292389 
	C405.809387,47.232452 416.017914,45.659718 426.185547,45.198704 
	C448.548492,44.184746 468.822021,51.683105 487.432892,63.319839 
	C496.940430,69.264565 506.185455,76.136902 514.055664,84.071342 
	C525.318665,95.426231 532.967896,109.492233 538.885193,124.406830 
	C546.395142,143.335846 551.377136,162.847855 552.989319,183.197067 
	C554.584106,203.325851 556.505188,223.430267 557.929504,243.570389 
	C558.632141,253.505630 558.420349,263.502899 558.898865,273.458771 
	C558.999451,275.551910 560.536987,277.535583 561.018005,279.659058 
	C562.096313,284.419525 563.326294,289.197540 563.793396,294.036133 
	C566.840027,325.598389 570.851257,356.986694 576.529907,388.227661 
	C582.639648,421.840271 591.741455,454.524567 602.775269,486.763794 
	C613.936951,519.376343 625.411133,551.889893 635.981567,584.693848 
	C642.591187,605.205688 652.710815,623.532715 665.708435,640.530151 
	C669.886719,645.994385 673.323425,652.025635 677.457275,658.282959 
	C678.543762,659.541443 679.272339,660.314453 680.000916,661.087463 
	C680.464478,661.427490 680.927979,661.767578 681.960449,662.224121 
	C683.332153,662.616699 684.134827,662.892761 684.937561,663.168762 
	C685.211060,663.629517 685.484558,664.090332 685.854370,665.084473 
	C686.263123,666.093201 686.575500,666.568604 686.887817,667.044067 
	C687.809387,669.824829 688.730957,672.605530 689.797913,675.999390 
	C690.241150,677.096619 690.538940,677.580750 690.836731,678.064941 
	C691.721008,680.136841 692.605286,682.208801 693.381592,684.605957 
	C692.950378,685.106262 692.821350,685.374634 692.886719,685.736450 
	C686.198608,681.526489 678.448669,681.278992 671.006470,679.988342 
	C656.269226,677.432556 641.513000,674.976807 626.734985,672.669189 
	C619.500244,671.539490 612.199219,670.834351 604.167114,669.781006 
	C596.278381,669.482788 589.150757,669.340698 582.023071,669.198608 
	C577.304321,669.331299 572.585510,669.463989 567.114136,669.468933 
	C563.548218,669.873718 560.734985,670.406250 557.921692,670.938782 
M434.883514,348.501099 
	C439.533051,338.579559 443.185608,328.014984 449.070740,318.890381 
	C457.458832,305.884979 471.131805,303.308105 485.664307,304.661926 
	C486.901398,304.777191 488.009033,306.667450 489.107056,307.800751 
	C490.778748,309.526062 492.712677,312.953552 493.955048,312.709106 
	C496.170563,312.273193 498.923035,309.999146 499.732941,307.847198 
	C502.110260,301.530396 497.782654,295.966125 489.762085,294.096954 
	C467.879730,288.997314 445.110474,298.604218 434.872620,318.871216 
	C428.453033,331.579529 424.009125,345.312500 419.060181,358.726440 
	C416.363312,366.036072 416.208160,372.946503 420.403748,380.599731 
	C426.814178,392.293121 432.472290,404.309387 441.296204,414.511871 
	C453.053650,428.106110 464.633667,441.853851 476.263977,455.557648 
	C476.888977,456.294128 477.355103,457.197235 477.757721,458.085144 
	C479.534637,462.004028 481.098145,466.028992 483.052124,469.855621 
	C484.978607,473.628387 492.615356,475.832001 496.209625,473.922638 
	C499.637726,472.101593 500.188843,468.074493 497.701721,462.832642 
	C497.274017,461.931183 496.930695,460.892639 496.247864,460.224640 
	C490.649078,454.747437 489.842957,447.352417 487.900818,440.324982 
	C483.383850,423.980652 479.897095,407.336243 471.948242,392.047638 
	C463.658691,376.103760 450.706360,367.805511 433.140991,366.045227 
	C432.165039,365.947418 431.196075,365.780273 429.416138,365.533356 
	C431.209839,359.919220 432.915710,354.579956 434.883514,348.501099 
M407.129608,188.423233 
	C403.697083,189.714752 401.113434,191.790466 402.157166,195.844315 
	C403.203064,199.906555 406.597870,200.290314 410.145294,200.071716 
	C413.462402,199.867325 416.802399,199.886078 420.096802,199.501999 
	C423.461914,199.109711 426.454559,197.780380 426.245850,193.699234 
	C426.049316,189.854858 423.178467,188.168671 419.817993,187.946457 
	C415.866180,187.685104 411.870972,188.079544 407.129608,188.423233 
M453.752808,178.811584 
	C459.693481,180.021317 463.861877,177.491699 464.781372,172.118790 
	C465.635406,167.128494 462.172211,162.118362 457.434814,161.490692 
	C452.841217,160.882065 448.250397,164.536331 447.665955,169.343933 
	C447.129486,173.756561 449.480530,176.505661 453.752808,178.811584 
M372.716949,166.790314 
	C371.435242,166.045074 370.093658,164.592834 368.883698,164.695282 
	C365.970001,164.942001 362.087738,165.032303 360.530731,166.846252 
	C358.972656,168.661453 358.864441,172.793518 359.727539,175.372208 
	C361.148254,179.616852 366.342499,181.135529 370.120178,179.318817 
	C374.343353,177.287857 375.495575,172.820297 372.716949,166.790314 
z"/>
<path fill="#F6F6F6" opacity="1.000000" stroke="none" 
	d="
M273.893066,442.074463 
	C268.760895,435.876862 263.987823,429.333313 258.421021,423.554443 
	C247.189651,411.895233 235.597000,400.579742 224.011368,389.267944 
	C218.453217,383.841095 212.571701,378.745422 206.400543,373.100922 
	C213.914017,369.060089 221.058594,369.761536 228.214981,371.690948 
	C245.807617,376.434082 255.966934,388.788666 261.983459,405.189789 
	C266.373016,417.155762 270.556244,429.197479 274.613586,441.580566 
	C274.228180,441.995270 274.060638,442.034882 273.893066,442.074463 
z"/>
<path fill="#717171" opacity="1.000000" stroke="none" 
	d="
M582.356201,669.436401 
	C589.150757,669.340698 596.278381,669.482788 603.720337,669.799072 
	C596.919556,669.873474 589.804443,669.773804 582.356201,669.436401 
z"/>
<path fill="#858585" opacity="1.000000" stroke="none" 
	d="
M400.156311,639.236450 
	C403.843933,639.029968 407.690643,639.233643 411.812408,639.673950 
	C408.163452,639.822632 404.239380,639.734619 400.156311,639.236450 
z"/>
<path fill="#717171" opacity="1.000000" stroke="none" 
	d="
M558.355347,671.057861 
	C560.734985,670.406250 563.548218,669.873718 566.692871,669.531006 
	C564.279114,670.206116 561.533997,670.691467 558.355347,671.057861 
z"/>
<path fill="#858585" opacity="1.000000" stroke="none" 
	d="
M375.246277,638.013794 
	C376.804565,637.776062 378.620209,637.780884 380.716705,637.994324 
	C379.166229,638.220764 377.334930,638.238525 375.246277,638.013794 
z"/>
<path fill="#2C2C2C" opacity="1.000000" stroke="none" 
	d="
M693.078491,685.979553 
	C692.821350,685.374634 692.950378,685.106262 693.510864,684.916992 
	C694.271790,685.353088 694.795593,685.803406 695.319397,686.253662 
	C694.636353,686.243347 693.953247,686.232971 693.078491,685.979553 
z"/>
<path fill="#2C2C2C" opacity="1.000000" stroke="none" 
	d="
M679.983459,660.719543 
	C679.272339,660.314453 678.543762,659.541443 677.755249,658.439758 
	C678.452148,658.857910 679.209106,659.604797 679.983459,660.719543 
z"/>
<path fill="#2C2C2C" opacity="1.000000" stroke="none" 
	d="
M684.896118,662.852661 
	C684.134827,662.892761 683.332153,662.616699 682.268250,662.143860 
	C682.956238,662.143616 683.905457,662.340149 684.896118,662.852661 
z"/>
<path fill="#2C2C2C" opacity="1.000000" stroke="none" 
	d="
M687.089417,666.868896 
	C686.575500,666.568604 686.263123,666.093201 686.013306,665.308960 
	C686.480957,665.564697 686.885986,666.129150 687.089417,666.868896 
z"/>
<path fill="#2C2C2C" opacity="1.000000" stroke="none" 
	d="
M691.044922,677.892944 
	C690.538940,677.580750 690.241150,677.096619 690.010010,676.306274 
	C690.468872,676.573792 690.861023,677.147400 691.044922,677.892944 
z"/>
<path fill="#BABABA" opacity="1.000000" stroke="none" 
	d="
M273.897461,442.386902 
	C274.060638,442.034882 274.228180,441.995270 274.653961,441.960266 
	C275.182220,442.274963 275.452271,442.585083 275.516907,443.335266 
	C275.311462,443.775391 274.921173,444.087585 274.921173,444.087585 
	C274.581421,443.624847 274.241638,443.162109 273.897461,442.386902 
z"/>
<path fill="#BABABA" opacity="1.000000" stroke="none" 
	d="
M275.528320,443.651154 
	C275.528503,443.868652 275.311859,444.210358 275.008179,444.319824 
	C274.921173,444.087585 275.311462,443.775391 275.528320,443.651154 
z"/>
<path fill="#343434" opacity="1.000000" stroke="none" 
	d="
M434.752563,348.870911 
	C432.915710,354.579956 431.209839,359.919220 429.416138,365.533356 
	C431.196075,365.780273 432.165039,365.947418 433.140991,366.045227 
	C450.706360,367.805511 463.658691,376.103760 471.948242,392.047638 
	C479.897095,407.336243 483.383850,423.980652 487.900818,440.324982 
	C489.842957,447.352417 490.649078,454.747437 496.247864,460.224640 
	C496.930695,460.892639 497.274017,461.931183 497.701721,462.832642 
	C500.188843,468.074493 499.637726,472.101593 496.209625,473.922638 
	C492.615356,475.832001 484.978607,473.628387 483.052124,469.855621 
	C481.098145,466.028992 479.534637,462.004028 477.757721,458.085144 
	C477.355103,457.197235 476.888977,456.294128 476.263977,455.557648 
	C464.633667,441.853851 453.053650,428.106110 441.296204,414.511871 
	C432.472290,404.309387 426.814178,392.293121 420.403748,380.599731 
	C416.208160,372.946503 416.363312,366.036072 419.060181,358.726440 
	C424.009125,345.312500 428.453033,331.579529 434.872620,318.871216 
	C445.110474,298.604218 467.879730,288.997314 489.762085,294.096954 
	C497.782654,295.966125 502.110260,301.530396 499.732941,307.847198 
	C498.923035,309.999146 496.170563,312.273193 493.955048,312.709106 
	C492.712677,312.953552 490.778748,309.526062 489.107056,307.800751 
	C488.009033,306.667450 486.901398,304.777191 485.664307,304.661926 
	C471.131805,303.308105 457.458832,305.884979 449.070740,318.890381 
	C443.185608,328.014984 439.533051,338.579559 434.752563,348.870911 
M466.046722,426.448242 
	C468.298859,428.885315 470.551025,431.322388 472.803162,433.759460 
	C473.188690,433.529633 473.574188,433.299805 473.959717,433.069946 
	C471.282379,424.526398 469.014099,415.824646 465.792358,407.491577 
	C463.409424,401.327972 460.245697,395.341003 456.607605,389.816803 
	C450.915863,381.174225 441.963989,378.325409 431.342072,376.983215 
	C432.317657,379.193512 432.833527,380.387177 433.369202,381.571930 
	C441.054779,398.570679 454.480408,411.397156 466.046722,426.448242 
z"/>
<path fill="#373737" opacity="1.000000" stroke="none" 
	d="
M407.512085,188.306427 
	C411.870972,188.079544 415.866180,187.685104 419.817993,187.946457 
	C423.178467,188.168671 426.049316,189.854858 426.245850,193.699234 
	C426.454559,197.780380 423.461914,199.109711 420.096802,199.501999 
	C416.802399,199.886078 413.462402,199.867325 410.145294,200.071716 
	C406.597870,200.290314 403.203064,199.906555 402.157166,195.844315 
	C401.113434,191.790466 403.697083,189.714752 407.512085,188.306427 
z"/>
<path fill="#363636" opacity="1.000000" stroke="none" 
	d="
M453.429413,178.638992 
	C449.480530,176.505661 447.129486,173.756561 447.665955,169.343933 
	C448.250397,164.536331 452.841217,160.882065 457.434814,161.490692 
	C462.172211,162.118362 465.635406,167.128494 464.781372,172.118790 
	C463.861877,177.491699 459.693481,180.021317 453.429413,178.638992 
z"/>
<path fill="#383838" opacity="1.000000" stroke="none" 
	d="
M372.958862,167.082306 
	C375.495575,172.820297 374.343353,177.287857 370.120178,179.318817 
	C366.342499,181.135529 361.148254,179.616852 359.727539,175.372208 
	C358.864441,172.793518 358.972656,168.661453 360.530731,166.846252 
	C362.087738,165.032303 365.970001,164.942001 368.883698,164.695282 
	C370.093658,164.592834 371.435242,166.045074 372.958862,167.082306 
z"/>
<path fill="#F3F3F3" opacity="1.000000" stroke="none" 
	d="
M465.821350,426.175568 
	C454.480408,411.397156 441.054779,398.570679 433.369202,381.571930 
	C432.833527,380.387177 432.317657,379.193512 431.342072,376.983215 
	C441.963989,378.325409 450.915863,381.174225 456.607605,389.816803 
	C460.245697,395.341003 463.409424,401.327972 465.792358,407.491577 
	C469.014099,415.824646 471.282379,424.526398 473.959717,433.069946 
	C473.574188,433.299805 473.188690,433.529633 472.803162,433.759460 
	C470.551025,431.322388 468.298859,428.885315 465.821350,426.175568 
z"/>
</svg>